Coordinates
version=1
nRows=8
nColumns=36
inDegrees=yes

Units are S.I. units (second, meters, Newtons, ...)
If the header above contains a line with 'inDegrees', this indicates whether rotational values are in degrees (yes) or radians (no).

endheader
time	pelvis_tilt	pelvis_list	pelvis_rotation	pelvis_tx	pelvis_ty	pelvis_tz	hip_flexion_r	hip_adduction_r	hip_rotation_r	knee_angle_r	knee_angle_r_beta	ankle_angle_r	subtalar_angle_r	mtp_angle_r	hip_flexion_l	hip_adduction_l	hip_rotation_l	knee_angle_l	knee_angle_l_beta	ankle_angle_l	subtalar_angle_l	mtp_angle_l	lumbar_extension	lumbar_bending	lumbar_rotation	arm_flex_r	arm_add_r	arm_rot_r	elbow_flex_r	pro_sup_r	arm_flex_l	arm_add_l	arm_rot_l	elbow_flex_l	pro_sup_l
     44.80000000	     -3.98882985	     -1.85498115	     -2.49363872	      1.03492023	      0.91448971	      0.73984890	     29.51919094	      0.45938499	      4.75298660	      5.32373366	      0.09291668	      9.08919501	      4.51129072	     -7.49999987	     -7.01684677	     -0.45597575	      1.00034389	     15.01447869	      0.26205209	     20.32967269	     -5.06822909	     -7.49999987	    -11.79945462	      3.84128383	     -2.05368341	     -4.39845264	    -16.57742475	     -1.92669791	     17.41377110	     80.30601424	     15.52595995	    -13.80915359	     11.66580985	     29.60493036	     82.96374715
     44.81666670	     -4.31956101	     -2.24998298	     -2.36654437	      1.03416762	      0.91358780	      0.74109518	     29.66972953	      1.20729512	      5.08996978	      5.86512230	      0.10236570	      7.96883539	      4.52586907	     -7.49999987	     -7.32729763	     -1.01499407	      0.53916118	     16.31939791	      0.28482723	     20.49173945	     -4.64259324	     -7.49999987	    -11.40866394	      4.42240077	     -2.45540729	     -5.10257357	    -16.94521174	     -2.60231223	     16.39528011	     79.39919928	     16.11785124	    -13.77743498	     12.59962204	     28.81304533	     82.45911006
     44.83333330	     -4.57329782	     -2.66336546	     -2.20180539	      1.03366658	      0.91088859	      0.74105215	     29.62185543	      1.95878585	      5.12884888	      6.76509408	      0.11807317	      6.51835827	      4.58544741	     -7.49999987	     -7.69027932	     -1.56942902	     -0.01836488	     17.87655661	      0.31200477	     20.01590021	     -4.16471667	     -7.49999987	    -11.10720745	      5.01590958	     -2.77512187	     -5.93240052	    -17.30447794	     -3.23730912	     16.19030035	     79.12080836	     16.43586861	    -13.55275131	     13.14408300	     28.19533173	     82.56640596
     44.85000000	     -4.81799677	     -3.04600214	     -2.04675426	      1.03511827	      0.90714788	      0.74080120	     29.53766448	      2.65869044	      5.38133723	      8.01101456	      0.13981858	      4.87467387	      4.21742539	     -7.49999987	     -7.92672282	     -2.03290781	     -0.39378778	     19.89392150	      0.34721443	     18.74908334	     -4.24619497	     -7.49999987	    -10.78812315	      5.58959976	     -2.76758520	     -7.04912064	    -17.77340882	     -4.16035259	     16.36337335	     79.38361659	     16.70839611	    -13.20077450	     13.79014688	     27.39874347	     83.21499602
     44.86666670	     -5.04895118	     -3.54722761	     -1.99515317	      1.04045192	      0.90481394	      0.74311884	     29.31289620	      3.50575116	      5.73943811	      9.44664708	      0.16487509	      3.38448608	      3.71462460	     -7.49999987	     -8.02692938	     -2.68698242	     -0.93828925	     22.27077904	      0.38869842	     16.55194184	     -4.38311015	     -7.49999987	    -10.21240147	      6.25726540	     -2.92586508	     -7.76792020	    -18.24938505	     -4.45728494	     16.08399602	     79.53687416	     16.38312778	    -12.79363290	     13.60966352	     26.67922888	     83.33666239
     44.88333330	     -4.92715811	     -4.20602181	     -2.09685976	      1.04919339	      0.90544493	      0.74825021	     28.62819889	      4.56510923	      5.90902373	     11.15199219	      0.19463898	      2.56614063	      3.53576752	     -7.49999987	     -8.41908549	     -3.62288025	     -1.65685915	     24.73145865	      0.43164538	     13.40522345	     -4.16652153	     -7.49999987	     -9.95369166	      6.96434641	     -2.96958645	     -8.39838518	    -18.67222479	     -4.55207916	     16.04472478	     79.50671616	     15.68241679	    -12.53184925	     13.57268596	     26.37829354	     83.27558457
     44.90000000	     -4.67517844	     -5.02308331	     -2.24968893	      1.05814556	      0.90830754	      0.75444829	     27.67005499	      5.83036240	      6.04865385	     12.88154004	      0.22482529	      2.06290037	      2.99743201	     -7.49999987	     -8.80853283	     -4.81400314	     -2.17602953	     27.24615576	      0.47553513	      9.47089875	     -3.87271798	     -7.49999987	     -9.61133796	      7.83110376	     -2.86118100	     -9.09290790	    -18.98300140	     -4.61447498	     15.97383908	     79.48614138	     14.75732703	    -12.17201244	     13.45450409	     25.81553091	     83.17845668
     44.91666670	     -4.28319526	     -5.86895343	     -2.35930665	      1.06313947	      0.91170126	      0.76069510	     26.39631181	      7.18575424	      6.63027529	     14.34438451	      0.25035674	      1.46784837	      1.20543106	     -7.49999987	     -9.08501955	     -5.99239559	     -1.98406434	     29.78433921	      0.51983478	      4.71573147	     -4.57736487	     -7.49999987	     -9.20436425	      8.65906771	     -2.22814382	     -9.94447196	    -19.13319214	     -4.51149683	     15.57062207	     79.12988605	     14.68666858	    -10.92884029	     11.92097832	     22.64125470	     82.12065835
